<?xml version="1.0" encoding="utf-8"?>
<svg id="NOV_15_ReDo_New" viewBox="0 0 78.75 70.15" xmlns="http://www.w3.org/2000/svg">
  <defs>
    <style>.cls-1{fill:#e6e6e5;}.cls-2{fill:#303030;}.cls-3{fill:#fff;opacity:0.87;}</style>
  </defs>
  <title>Linux_PC</title>
  <path class="cls-1" d="M635.79,150.18H618.11a1.13,1.13,0,0,1-1.09-.94s-.1-.52-.18-1c0-.32-.08-.58-.1-.78-.09-1.12.49-1.46.84-1.56a11.07,11.07,0,0,0,1.61-.69l0-.13,0-.16c.15-.84.4-2.44.54-3.9.05-.54.09-.93.11-1.08l0-.28H634l0,.28c0,.15.06.54.11,1.08.15,1.46.39,3,.54,3.89a2.27,2.27,0,0,0,.08.33,7,7,0,0,0,1.58.66c.84.24.9,1.18.92,1.5a6.17,6.17,0,0,1,0,1.07c-.19,1.56-1.07,1.73-1.44,1.73Z" transform="translate(-587.6 -80.03)" style="fill: rgb(206, 212, 212);"/>
  <path class="cls-1" d="M589.51,138.85a2,2,0,0,1-1.91-2V82.05a2,2,0,0,1,1.91-2h74.93a2,2,0,0,1,1.91,2v54.78a2,2,0,0,1-1.91,2Z" transform="translate(-587.6 -80.03)" style="fill: rgb(206, 212, 212);"/>
  <path class="cls-2" d="M660.87,128.56a1.66,1.66,0,0,1-1.59,1.71H594.67a1.66,1.66,0,0,1-1.59-1.71V87.81a1.66,1.66,0,0,1,1.59-1.71h64.61a1.66,1.66,0,0,1,1.59,1.71Z" transform="translate(-587.6 -80.03)"/>
  <path class="cls-3" d="M625.06,100.85a.35.35,0,0,0-.27.21q-.08.18-.15.18t-.09-.18A.58.58,0,0,1,625.06,100.85Zm1.63.11q0,.11,0,.14t-.23-.11a.31.31,0,0,0-.34-.08Q626.57,100.69,626.69,101Zm-6.93,8.9q.26,0,.44-.47t.08-.5-.13,0a1.59,1.59,0,0,0-.08.23q0,.16-.08.24a.81.81,0,0,1-.18.23q-.15.15-.13.16Zm16,5.53q0-.29-1-.78a4,4,0,0,0,.15-.57q0-.27.1-.47a1.66,1.66,0,0,0,0-.48,2.41,2.41,0,0,1,0-.4,1.59,1.59,0,0,0,0-.44l-.08-.4-.1-.52a6.31,6.31,0,0,0-.94-2.36,4.62,4.62,0,0,0-1.34-1.44,5.79,5.79,0,0,1,1,1.52,6.78,6.78,0,0,1,1,5.07.93.93,0,0,1-.84.78q-.65.06-.78-.36a6.28,6.28,0,0,1-.15-1.52,9.12,9.12,0,0,0-.19-1.87q-.18-.78-.36-1.32a4.93,4.93,0,0,0-.34-.84,3.12,3.12,0,0,0-.68-.84,8.46,8.46,0,0,0-1.07-2.86,4.36,4.36,0,0,1-.71-1.34,2.26,2.26,0,0,1,.11-1,1.52,1.52,0,0,0,.06-.9.72.72,0,0,0-.6-.4,3.91,3.91,0,0,1-1-.37,4.78,4.78,0,0,0-.66-.31q-.13,0-.18-.48a1.78,1.78,0,0,1,.15-.9.86.86,0,0,1,1.58.08,1.15,1.15,0,0,1,.06,1q-.19.39,0,.53a.46.46,0,0,0,.47,0q.31-.1.31-.68v-.68a2.24,2.24,0,0,0-.89-1.68,2.12,2.12,0,0,0-.66-.19q-2,.15-1.6,2.55,0,.14,0,.13a.91.91,0,0,0-.82-.21q-.54.08-.6-.05a3.24,3.24,0,0,0-.29-1.63,1,1,0,0,0-.81-.61.81.81,0,0,0-.76.5,2.72,2.72,0,0,0-.32,1,2.58,2.58,0,0,0,.18,1.11q.23.63.42.57a.43.43,0,0,0,.28-.26q.05-.16-.1-.16t-.29-.26a1.55,1.55,0,0,1-.18-.63.94.94,0,0,1,.16-.65.65.65,0,0,1,1.11.13,1.45,1.45,0,0,1,.11,1.11,7.26,7.26,0,0,0-.55.52,1.29,1.29,0,0,1-.5.44l-.37.21a.91.91,0,0,0-.29.5.37.37,0,0,0,.23.39,1.55,1.55,0,0,1,.47.42,1.76,1.76,0,0,0,.44.42,2,2,0,0,0,.89.18,3.52,3.52,0,0,0,1.2-.13l.94-.27.65-.19a1.65,1.65,0,0,0,.89-.52q.16-.27.39-.21a.24.24,0,0,1,.11.29q0,.19-.34.27a5.94,5.94,0,0,0-.61.21l-.69.31a7.27,7.27,0,0,1-1.65.61,5.69,5.69,0,0,1-1.65,0q-.18,0-.12.07a1.6,1.6,0,0,0,1.49.71,2.79,2.79,0,0,0,1.47-.42q.69-.42,1.08-.63a1.74,1.74,0,0,1,.57-.23.22.22,0,0,1,.24.16.23.23,0,0,1-.13.29l-.4.23-.55.27a7.61,7.61,0,0,0-1,.66,8.92,8.92,0,0,1-1.21.78.9.9,0,0,1-.87,0,5.34,5.34,0,0,1-1.24-1.42q-.36-.52-.38-.2s0,.14,0,.34a3,3,0,0,1-.44,1.11,15,15,0,0,0-.66,1.36,2.15,2.15,0,0,0,.1,1.49q-.42.13-1.13,1.66a9.39,9.39,0,0,0-.81,2.21,10.35,10.35,0,0,0-.08,1.62,2.86,2.86,0,0,1-.08,1.07q-.19.52-.65-.07a3.13,3.13,0,0,1-.48-2.61q.11-.55-.06-.26a3.27,3.27,0,0,0,.16,3,1.42,1.42,0,0,0,.45.5,4.12,4.12,0,0,1,.58.53,22.52,22.52,0,0,0,1.76,1.49q1.53,1.23,1.7,1.39a1,1,0,0,1,.24,1.1,1,1,0,0,1-1,.78,9,9,0,0,0,.53.81,3.21,3.21,0,0,1,.5,1,5,5,0,0,1,.13,1.29q.81-.42.13-1.68a.86.86,0,0,0-.19-.29q-.24-.24-.19-.32a.64.64,0,0,1,.23-.15.31.31,0,0,1,.34,0q.84.94,3.15.63a4,4,0,0,0,3.09-1.57q.45-.68.61-.55t.18.76a6.57,6.57,0,0,1-.36,1.76q-.34,1.07.27,1.07,0-.23.24-1.34t.26-1.6a6.26,6.26,0,0,0-.1-1.44q-.35-2.28.27-3.05a1.1,1.1,0,0,1,.9-.32,1,1,0,0,1,.65-1,2.6,2.6,0,0,1,2.39.21Zm-11.47-15s.08-.06.1-.18a.71.71,0,0,0-.08-.42q-.11-.24-.21-.27t-.15.13a.35.35,0,0,0,.09.1q.19,0,.13.32T624.31,100.43Zm7.63,3.88A.47.47,0,0,0,632,104a.32.32,0,0,0-.11-.23.79.79,0,0,0-.24-.08.7.7,0,0,1-.27-.11,1.28,1.28,0,0,1-.24-.24l-.18-.23s-.07,0-.11,0q-.26.29.11.79t.63.55A.31.31,0,0,0,631.94,104.31Zm-3.36-4.14.19-.1a.67.67,0,0,0-.16-.47.44.44,0,0,0-.29-.18q-.2.06-.06.16T628.58,100.17Zm.73-4.15q.72-.08.23-.38a1.42,1.42,0,0,1-.28-.24.39.39,0,0,0-.32-.15.23.23,0,0,0-.21.13.46.46,0,0,0,0,.24.43.43,0,0,1,0,.21,1,1,0,0,1-.11.19q-.13.18,0,.31t.18,0A1,1,0,0,1,629.31,96Zm9,27.18a3.53,3.53,0,0,1-.44.21,13.06,13.06,0,0,0-2.94,2.2,2.13,2.13,0,0,1-1.23.36,2.91,2.91,0,0,1-1.42-.18,1.94,1.94,0,0,1-.73-.52,3.08,3.08,0,0,1-.31-.47,1.18,1.18,0,0,0-1.15-.53l-2.47,0q-1.36.06-2.36.08a3.86,3.86,0,0,0-2.12.79,3.33,3.33,0,0,1-1.71.76,8,8,0,0,1-2.1-.57,18.55,18.55,0,0,0-2.26-.71l-1.31-.26-.9-.16-.73-.16q-1.39-.36-.79-1.83a4.23,4.23,0,0,0,.34-1.08,3.43,3.43,0,0,0-.15-.92q-.16-.63-.21-1a1,1,0,0,1,.21-.71,1.93,1.93,0,0,1,1-.24,2.94,2.94,0,0,0,1.23-.29,1.85,1.85,0,0,0,.65-.55,1.64,1.64,0,0,0,.21-.92,1.5,1.5,0,0,1-.58,1.91,2.12,2.12,0,0,1-1.34.28q-.76-.07-1,.23t.13,1a4.06,4.06,0,0,1,.4,1.32,2.66,2.66,0,0,1-.32.94,1.53,1.53,0,0,0-.24.89q.06.27.52.42a16.27,16.27,0,0,0,1.62.37q1.16.23,1.74.37t1.49.42a7.15,7.15,0,0,0,2.66.45,1.68,1.68,0,0,0,1.19-.65,1.5,1.5,0,0,0,.23-1.26,6.24,6.24,0,0,0-.84-2.12,40.17,40.17,0,0,0-3.18-4.56q-1.08-1.23-1.92-.58a.43.43,0,0,1-.19,0s-.08-.1-.1-.27a3.43,3.43,0,0,1,0-.39V115a3.33,3.33,0,0,1,.48-1.51,10,10,0,0,0,.56-1q.13-.31.48-1.31t.53-1.45a6,6,0,0,1,1.24-2.07,12.47,12.47,0,0,0,2.26-3.55q-.23-2.2-.29-5.62a6.8,6.8,0,0,1,.44-2.76,4,4,0,0,1,1.92-1.89,3.79,3.79,0,0,1,1.87-.39,5.68,5.68,0,0,1,3.39.87,5.54,5.54,0,0,1,1.83,2.33,6.24,6.24,0,0,1,.53,2.92,10.5,10.5,0,0,0,.53,3.59,10,10,0,0,0,2.44,4,10.09,10.09,0,0,1,1.81,3,13.72,13.72,0,0,1,1,3.15,9.05,9.05,0,0,1,.15,1.89q-.1,1.3-.57,1.37-.28.06-.92,1a2.09,2.09,0,0,1-.74.63,1.75,1.75,0,0,1-1,.24,4,4,0,0,1-.71-.1.82.82,0,0,1-.4-.24,2.62,2.62,0,0,1-.23-.27,4.31,4.31,0,0,1-.21-.39l-.18-.36q-.39-.65-.74-.52t-.52.89a4,4,0,0,0,.16,1.89,8.74,8.74,0,0,1,0,3.39,2.27,2.27,0,0,0,.32,1.84,1.54,1.54,0,0,0,1.32.61,3,3,0,0,0,1.73-.79,12.45,12.45,0,0,1,1.47-1.08,9.75,9.75,0,0,1,1.68-.71,5.83,5.83,0,0,0,1.57-.73q.44-.34.34-.61-.2-.56-1.39-1a1.84,1.84,0,0,1-1.1-1.55q-.23-1.23.19-1.52a3.56,3.56,0,0,0,.79,2.29,1.84,1.84,0,0,0,.39.34q1.39.77,1.46,1.27Q640.93,122,638.29,123.2Z" transform="translate(-587.6 -80.03)" style="fill: rgb(144, 142, 68);"/>
</svg>